HIERARCHY
ROOT joint_Root
{
	OFFSET 0.0 0.0 0.0
	CHANNELS 6 Xposition Yposition Zposition Zrotation Xrotation Yrotation 
	JOINT Hips
	{
		OFFSET 4.5925 91.4895 -427.239
		CHANNELS 6 Xposition Yposition Zposition Zrotation Xrotation Yrotation 
		JOINT Spine
		{
			OFFSET 15.7357 0.0 0.0
			CHANNELS 6 Xposition Yposition Zposition Zrotation Xrotation Yrotation 
			JOINT Chest
			{
				OFFSET 8.98455 -0.406207 0.0
				CHANNELS 6 Xposition Yposition Zposition Zrotation Xrotation Yrotation 
				JOINT Neck
				{
					OFFSET 16.3773 0.0 0.0
					CHANNELS 6 Xposition Yposition Zposition Zrotation Xrotation Yrotation 
					JOINT Head
					{
						OFFSET 6.45672 0.0 0.0
						CHANNELS 6 Xposition Yposition Zposition Zrotation Xrotation Yrotation 
						End Site
						{
							OFFSET 0.0 0.0 0.0
						}
					}
				}
				JOINT Shoulder_L
				{
					OFFSET 12.9942 -0.242716 4.98039
					CHANNELS 6 Xposition Yposition Zposition Zrotation Xrotation Yrotation 
					JOINT UpperArm_L
					{
						OFFSET 5.34809 0.0 0.0
						CHANNELS 6 Xposition Yposition Zposition Zrotation Xrotation Yrotation 
						JOINT LowerArm_L
						{
							OFFSET 24.3286 1.87007e-05 0.0
							CHANNELS 6 Xposition Yposition Zposition Zrotation Xrotation Yrotation 
							JOINT Hand_L
							{
								OFFSET 22.2916 0.0 0.0
								CHANNELS 6 Xposition Yposition Zposition Zrotation Xrotation Yrotation 
								End Site
								{
									OFFSET 0.0 0.0 0.0
								}
							}
						}
					}
				}
				JOINT Shoulder_R
				{
					OFFSET 12.9945 -0.242716 -4.98039
					CHANNELS 6 Xposition Yposition Zposition Zrotation Xrotation Yrotation 
					JOINT UpperArm_R
					{
						OFFSET -5.34813 0.0 0.0
						CHANNELS 6 Xposition Yposition Zposition Zrotation Xrotation Yrotation 
						JOINT LowerArm_R
						{
							OFFSET -24.3289 0.000322201 0.0
							CHANNELS 6 Xposition Yposition Zposition Zrotation Xrotation Yrotation 
							JOINT Hand_R
							{
								OFFSET -22.2915 -0.000108084 0.0
								CHANNELS 6 Xposition Yposition Zposition Zrotation Xrotation Yrotation 
								End Site
								{
									OFFSET 0.0 0.0 0.0
								}
							}
						}
					}
				}
			}
		}
		JOINT UpperLeg_L
		{
			OFFSET -2.19248 -6.46944 0.0
			CHANNELS 6 Xposition Yposition Zposition Zrotation Xrotation Yrotation 
			JOINT LowerLeg_L
			{
				OFFSET 39.0811 0.0 -1.23785e-05
				CHANNELS 6 Xposition Yposition Zposition Zrotation Xrotation Yrotation 
				JOINT Foot_L
				{
					OFFSET 40.9854 0.0 -1.26872e-05
					CHANNELS 6 Xposition Yposition Zposition Zrotation Xrotation Yrotation 
					JOINT Toes_L
					{
						OFFSET 11.7543 0.0 0.0
						CHANNELS 6 Xposition Yposition Zposition Zrotation Xrotation Yrotation 
						End Site
						{
							OFFSET 0.0 0.0 0.0
						}
					}
				}
			}
		}
		JOINT UpperLeg_R
		{
			OFFSET -2.19251 6.46944 0.0
			CHANNELS 6 Xposition Yposition Zposition Zrotation Xrotation Yrotation 
			JOINT LowerLeg_R
			{
				OFFSET -39.0811 -0.00228153 -0.0401928
				CHANNELS 6 Xposition Yposition Zposition Zrotation Xrotation Yrotation 
				JOINT Foot_R
				{
					OFFSET -40.9854 0.0 0.0
					CHANNELS 6 Xposition Yposition Zposition Zrotation Xrotation Yrotation 
					JOINT Toes_R
					{
						OFFSET -11.7543 0.0 0.0
						CHANNELS 6 Xposition Yposition Zposition Zrotation Xrotation Yrotation 
						End Site
						{
							OFFSET 0.0 0.0 0.0
						}
					}
				}
			}
		}
	}
}
MOTION
Frames:	6
Frame Time:	0.0333333
0.000000 0.000000 0.000000 0.000000 0.000000 -0.000000 -0.913010 92.418900 1.120160 88.382300 5.489620 2.226230 15.735700 0.000005 -0.000001 94.934400 86.338700 -99.387700 8.984550 -0.406207 -0.000000 -0.418083 0.947243 -8.898630 16.377300 -0.000001 -0.000001 6.195590 -3.914930 4.071740 6.456720 -0.000001 -0.000000 -0.806559 -3.134680 2.335640 12.994200 -0.242716 4.980390 -92.267100 5.043790 -65.758600 5.348090 -0.000007 -0.000001 -60.961300 11.394900 -3.254710 24.328600 0.000019 0.000005 10.572700 21.161300 -27.341100 22.291600 -0.000001 0.000005 13.758100 5.188850 2.997070 12.994500 -0.242716 -4.980390 94.746600 -12.030600 -68.279100 -5.348130 -0.000001 -0.000004 -32.710800 -68.773100 -68.860600 -24.328900 0.000322 -0.000009 -5.380560 -5.954750 -42.228200 -22.291500 -0.000108 -0.000004 19.078300 5.556520 -9.018890 -2.192480 -6.469440 -0.000000 -174.150000 -12.512000 -3.078450 39.081100 -0.000007 -0.000012 -0.082460 0.215506 20.938500 40.985400 -0.000006 -0.000013 1.367570 15.462900 -66.118300 11.754300 -0.000000 0.000003 -0.000216 -0.001972 -16.651800 -2.192510 6.469440 -0.000001 176.832000 27.629400 -178.519000 -39.081100 -0.002282 -0.040193 0.002065 0.003859 18.077100 -40.985400 0.000008 0.000006 6.807510 18.932800 -67.433500 -11.754300 -0.000006 -0.000006 -0.107150 -0.147065 -17.518200
0.000000 0.000000 0.000000 0.000000 0.000000 -0.000000 -0.779492 92.433200 0.937538 88.301300 4.651480 2.367270 15.735700 0.000005 -0.000001 93.275600 86.304200 -97.401100 8.984550 -0.406207 -0.000000 -0.347324 0.713930 -8.244350 16.377300 -0.000001 -0.000001 5.968960 -3.710200 3.896270 6.456720 -0.000001 -0.000000 -0.687312 -2.881650 2.422080 12.994200 -0.242716 4.980390 -92.270700 5.087250 -65.907300 5.348090 -0.000007 -0.000001 -61.916100 12.194600 -3.354210 24.328600 0.000019 0.000005 10.346100 20.956300 -27.041500 22.291600 -0.000001 0.000005 13.557200 5.194850 2.848180 12.994500 -0.242716 -4.980390 94.492200 -11.623600 -68.697700 -5.348130 -0.000001 -0.000004 -36.473500 -65.331200 -67.580300 -24.328900 0.000322 -0.000009 -5.975700 -4.508510 -53.106700 -22.291500 -0.000108 -0.000004 19.629900 5.551380 -8.772160 -2.192480 -6.469440 -0.000000 -174.159000 -12.943000 -2.939000 39.081100 -0.000007 -0.000012 -0.082265 0.214393 20.992300 40.985400 -0.000006 -0.000013 1.412580 15.062700 -66.117000 11.754300 -0.000000 0.000003 -0.000233 -0.002108 -16.656700 -2.192510 6.469440 -0.000001 176.809000 27.166300 -178.573000 -39.081100 -0.002282 -0.040193 0.002390 0.002870 18.048800 -40.985400 0.000008 0.000006 6.789780 19.329600 -67.316800 -11.754300 -0.000006 -0.000006 -0.063675 -0.095184 -17.477900
0.000000 0.000000 0.000000 0.000000 0.000000 -0.000000 -0.644534 92.452700 0.721327 88.259000 3.658400 2.397750 15.735700 0.000005 -0.000001 91.510900 86.302800 -95.337900 8.984550 -0.406207 -0.000000 -0.347138 0.465524 -7.648370 16.377300 -0.000001 -0.000001 5.669490 -3.450870 3.693890 6.456720 -0.000001 -0.000000 -0.588070 -2.675480 2.658790 12.994200 -0.242716 4.980390 -92.277100 5.138630 -66.060600 5.348090 -0.000007 -0.000001 -62.688800 13.423900 -3.620110 24.328600 0.000019 0.000005 10.127000 21.031500 -26.459200 22.291600 -0.000001 0.000005 13.293200 5.192550 2.905500 12.994500 -0.242716 -4.980390 93.984800 -10.768400 -69.553400 -5.348130 -0.000001 -0.000004 -38.621300 -60.963000 -63.913500 -24.328900 0.000322 -0.000009 -5.771550 -2.691010 -65.095100 -22.291500 -0.000108 -0.000004 19.744600 5.541370 -8.304490 -2.192480 -6.469440 -0.000000 -174.241000 -13.338400 -2.897700 39.081100 -0.000007 -0.000012 -0.082537 0.215137 20.989300 40.985400 -0.000006 -0.000013 1.406660 14.487500 -66.055200 11.754300 -0.000000 0.000003 -0.000245 -0.002196 -16.659900 -2.192510 6.469440 -0.000001 176.827000 26.554400 -178.792000 -39.081100 -0.002282 -0.040193 0.002686 0.001967 18.003800 -40.985400 0.000008 0.000006 6.693760 19.747100 -67.155500 -11.754300 -0.000006 -0.000006 -0.037502 -0.062693 -17.394000
0.000000 0.000000 0.000000 0.000000 0.000000 -0.000000 -0.493723 92.475700 0.458601 88.210200 2.551090 2.409740 15.735700 0.000005 -0.000001 90.405300 86.279600 -93.897400 8.984550 -0.406207 -0.000000 -0.306745 0.298354 -6.979360 16.377300 -0.000001 -0.000001 5.161230 -3.089200 3.238640 6.456720 -0.000001 -0.000000 -0.471369 -2.697310 3.040280 12.994200 -0.242716 4.980390 -92.321600 5.269300 -66.180800 5.348090 -0.000007 -0.000001 -63.310400 15.185800 -4.130250 24.328600 0.000019 0.000005 9.866900 21.179700 -25.706800 22.291600 -0.000001 0.000005 12.866900 5.189840 2.973240 12.994500 -0.242716 -4.980390 93.211700 -9.258440 -70.774300 -5.348130 -0.000001 -0.000004 -37.974500 -55.839400 -57.700700 -24.328900 0.000322 -0.000009 -5.268750 -1.245380 -76.749300 -22.291500 -0.000108 -0.000004 19.591400 5.522890 -7.485440 -2.192480 -6.469440 -0.000000 -174.352000 -13.758200 -2.901050 39.081100 -0.000007 -0.000012 -0.081962 0.213578 20.994600 40.985400 -0.000006 -0.000013 1.390640 13.770900 -65.969300 11.754300 -0.000000 0.000003 -0.000239 -0.002152 -16.658300 -2.192510 6.469440 -0.000001 176.885000 25.862600 -179.134000 -39.081100 -0.002282 -0.040193 0.003205 0.000368 18.042400 -40.985400 0.000008 0.000006 6.684610 20.185300 -66.980000 -11.754300 -0.000006 -0.000006 -0.027998 -0.050233 -17.334100
0.000000 0.000000 0.000000 0.000000 0.000000 -0.000000 -0.352691 92.450700 0.250514 88.219500 1.408440 2.642740 15.735700 0.000005 -0.000001 89.945300 86.150400 -93.104900 8.984550 -0.406207 -0.000000 -0.053288 0.208032 -6.315170 16.377300 -0.000001 -0.000001 4.536990 -2.694830 2.693780 6.456720 -0.000001 -0.000000 -0.448266 -2.707410 3.457610 12.994200 -0.242716 4.980390 -92.332500 5.340360 -66.363600 5.348090 -0.000007 -0.000001 -63.900800 17.321800 -4.744420 24.328600 0.000019 0.000005 9.798400 21.557700 -25.174100 22.291600 -0.000001 0.000005 12.554600 5.185610 3.077680 12.994500 -0.242716 -4.980390 92.204200 -7.052790 -72.600700 -5.348130 -0.000001 -0.000004 -34.684600 -49.972700 -49.404600 -24.328900 0.000322 -0.000009 -3.960090 -0.206886 -87.039800 -22.291500 -0.000108 -0.000004 19.521200 5.506570 -6.800970 -2.192480 -6.469440 -0.000000 -174.451000 -14.105300 -2.753370 39.081100 -0.000007 -0.000012 -0.084498 0.217186 21.258900 40.985400 -0.000006 -0.000013 1.382950 12.978300 -66.065700 11.754300 -0.000000 0.000003 -0.000229 -0.002076 -16.655600 -2.192510 6.469440 -0.000001 176.693000 25.365600 -179.166000 -39.081100 -0.002282 -0.040193 0.003228 0.000295 18.155300 -40.985400 0.000008 0.000006 6.706890 20.888600 -67.141400 -11.754300 -0.000006 -0.000006 -0.001177 -0.017897 -17.300900
0.000000 0.000000 0.000000 0.000000 0.000000 -0.000000 -0.216299 92.420500 0.104739 88.228700 0.210838 3.143010 15.735700 0.000005 -0.000001 89.487400 85.898400 -92.299900 8.984550 -0.406207 -0.000000 0.445638 0.106147 -5.621400 16.377300 -0.000001 -0.000001 3.657110 -2.196590 2.041060 6.456720 -0.000001 -0.000000 -0.396851 -2.674600 3.890750 12.994200 -0.242716 4.980390 -92.383200 5.474870 -66.432600 5.348090 -0.000007 -0.000001 -64.345900 19.168900 -5.354200 24.328600 0.000019 0.000005 9.900590 21.887200 -25.089200 22.291600 -0.000001 0.000005 11.912200 5.188050 3.016210 12.994500 -0.242716 -4.980390 91.109500 -3.996660 -74.481800 -5.348130 -0.000001 -0.000004 -30.959700 -42.505200 -41.718300 -24.328900 0.000322 -0.000009 -2.451550 0.205828 -94.807400 -22.291500 -0.000108 -0.000004 19.776400 5.500860 -6.568950 -2.192480 -6.469440 -0.000000 -174.516000 -14.105100 -2.274710 39.081100 -0.000007 -0.000012 -0.086700 0.220128 21.497600 40.985400 -0.000006 -0.000013 1.296730 11.831500 -66.194800 11.754300 -0.000000 0.000003 -0.000233 -0.002104 -16.656600 -2.192510 6.469440 -0.000001 176.379000 24.855100 -178.859000 -39.081100 -0.002282 -0.040193 0.002762 0.001705 18.262600 -40.985400 0.000008 0.000006 6.751440 21.576800 -67.336600 -11.754300 -0.000006 -0.000006 -0.001021 -0.015699 -17.211600
